<?xml version="1.0" standalone="no"?>
<!DOCTYPE svg PUBLIC "-//W3C//DTD SVG 20010904//EN"
 "http://www.w3.org/TR/2001/REC-SVG-20010904/DTD/svg10.dtd">
<svg version="1.0" xmlns="http://www.w3.org/2000/svg"
 width="256.000000pt" height="256.000000pt" viewBox="0 0 256.000000 256.000000"
 preserveAspectRatio="xMidYMid meet">
<metadata>
Created by potrace 1.16, written by Peter Selinger 2001-2019
</metadata>
<g transform="translate(0.000000,256.000000) scale(0.100000,-0.100000)"
fill="#000000" stroke="none">
<path d="M440 1993 c-1 -296 -3 -792 -5 -1103 -3 -311 -1 -581 3 -600 15 -61
24 595 21 1438 -2 441 -7 802 -11 802 -5 0 -8 -242 -8 -537z"/>
<path d="M229 2438 l-167 -51 -4 -266 c-3 -146 -3 -268 -1 -271 2 -2 84 12
181 31 l177 35 3 264 c3 256 0 311 -16 309 -4 0 -82 -23 -173 -51z m111 -118
c0 -5 -4 -10 -10 -10 -5 0 -10 5 -10 10 0 6 5 10 10 10 6 0 10 -4 10 -10z
m-175 -39 c3 -5 1 -12 -5 -16 -5 -3 -10 1 -10 9 0 18 6 21 15 7z m215 -151 c0
-55 -3 -100 -7 -100 -5 0 -8 45 -8 100 0 55 3 100 8 100 4 0 7 -45 7 -100z
m-46 23 c4 -38 9 -80 12 -95 3 -17 1 -28 -5 -28 -6 0 -11 9 -11 20 0 11 -7 20
-15 20 -8 0 -15 8 -15 18 0 13 2 14 9 3 14 -22 21 4 11 40 -12 42 -13 89 -1
89 5 0 12 -30 15 -67z m-48 41 c-3 -9 -6 -54 -6 -100 0 -53 -4 -84 -11 -84 -6
0 -10 30 -8 84 1 46 -1 88 -4 93 -8 13 2 23 21 23 9 0 12 -6 8 -16z m-96 -101
c0 -80 -6 -103 -26 -103 -15 0 -19 30 -15 120 3 60 18 91 32 68 5 -7 9 -45 9
-85z m22 11 c-3 -75 -1 -86 12 -81 10 4 13 1 9 -9 -3 -8 -11 -13 -17 -11 -13
4 -22 187 -9 187 4 0 7 -39 5 -86z m-77 -24 c0 -55 -3 -100 -7 -100 -5 0 -9
21 -9 48 -1 41 -2 43 -9 17 l-7 -30 -6 35 c-11 62 -13 110 -5 110 4 0 8 -16 8
-35 0 -19 5 -35 10 -35 6 0 10 17 10 38 0 31 6 52 14 52 1 0 1 -45 1 -100z"/>
<path d="M160 2079 c0 -51 4 -78 10 -74 6 3 10 40 10 81 0 43 -4 74 -10 74 -6
0 -10 -34 -10 -81z"/>
<path d="M1060 2235 c0 -29 -3 -36 -15 -31 -19 7 -30 -35 -16 -62 9 -18 7 -22
-19 -31 -17 -5 -37 -8 -45 -5 -19 8 -19 -10 -1 -26 12 -9 22 -6 52 14 21 14
40 23 43 20 3 -3 -2 -10 -12 -15 -17 -10 -24 -59 -8 -59 5 0 7 -9 4 -20 -6
-22 12 -28 20 -7 4 10 7 10 18 0 18 -18 40 -16 33 2 -4 8 -12 15 -20 15 -10 0
-8 6 6 20 26 26 26 50 0 57 -24 6 -16 23 11 23 10 0 19 5 19 10 0 18 -29 23
-47 9 -11 -9 -9 -3 6 18 21 31 21 60 -1 47 -6 -4 -8 1 -4 13 4 12 1 25 -9 33
-13 11 -15 7 -15 -25z m40 -154 c0 -27 -17 -35 -23 -11 -5 19 0 30 15 30 4 0
8 -9 8 -19z"/>
<path d="M1349 2083 c-13 -3 -17 -26 -23 -119 -3 -64 -3 -120 1 -126 3 -6 9
-25 13 -42 l6 -31 89 3 c79 3 93 1 117 -17 14 -12 33 -21 42 -21 9 0 30 -13
48 -30 17 -16 36 -30 43 -30 19 0 42 -32 54 -74 13 -49 0 -76 -37 -76 -26 0
-27 -2 -24 -45 l4 -45 25 20 c14 11 28 18 32 16 3 -2 4 -28 2 -58 -4 -47 -5
-49 -10 -20 l-6 34 -25 -28 c-14 -16 -17 -22 -7 -15 11 9 17 10 18 2 1 -6 2
-17 3 -23 1 -7 9 -12 19 -12 9 1 17 -1 17 -5 0 -15 -131 -139 -191 -181 -61
-42 -63 -43 -45 -15 11 16 28 37 38 45 15 12 19 25 16 55 -4 39 -4 39 -15 15
-7 -14 -12 -19 -12 -11 -1 7 -7 11 -15 8 -28 -11 -4 27 48 77 28 26 43 43 34
36 -10 -7 -18 -9 -18 -5 0 5 -8 -2 -19 -13 -19 -22 -37 -30 -26 -12 3 6 -1 10
-9 10 -9 0 -16 4 -16 8 0 4 9 8 19 8 11 0 17 -5 14 -10 -3 -5 -1 -6 6 -2 6 4
9 12 5 17 -3 5 -10 7 -15 4 -5 -4 -9 -3 -9 0 0 10 27 35 38 35 21 0 42 38 40
73 -3 30 -7 37 -24 37 -39 0 -84 12 -78 21 6 11 -92 11 -279 2 l-137 -6 0
-655 c0 -361 -2 -653 -4 -651 -9 10 -19 1234 -11 1314 2 22 4 46 4 53 1 6 12
22 26 34 28 25 24 38 -12 38 -22 0 -24 2 -12 16 10 13 10 17 -2 25 -11 7 -10
10 9 15 23 6 31 24 11 24 -6 0 -9 6 -6 14 3 8 -1 20 -10 28 -14 11 -15 11 -11
-2 3 -8 1 -23 -4 -33 -9 -18 -10 -18 -23 0 -14 17 -14 17 -15 -4 0 -14 -6 -23
-15 -23 -8 0 -15 -7 -15 -16 0 -11 6 -14 20 -9 15 5 18 3 14 -9 -3 -9 -1 -16
5 -16 24 0 9 -21 -19 -26 -16 -4 -30 -13 -30 -20 0 -17 5 -17 33 -3 18 9 17 6
-7 -20 -28 -29 -31 -56 -4 -33 9 7 19 5 36 -8 22 -18 30 -40 13 -40 -5 0 -11
-9 -14 -20 -5 -19 -7 -18 -36 9 -17 16 -46 32 -65 35 -19 4 -36 13 -39 20 -3
8 -20 17 -37 21 -20 4 -30 12 -26 20 2 7 0 17 -6 23 -7 7 1 13 28 18 22 5 42
9 47 10 4 1 13 2 20 3 33 3 45 93 28 201 l-7 45 -17 -32 c-10 -18 -20 -33 -22
-33 -8 0 6 53 16 65 5 5 9 16 9 24 0 23 -23 -3 -36 -42 -7 -18 -17 -31 -24
-29 -6 1 -9 -2 -6 -7 9 -14 -15 -72 -27 -64 -6 4 -8 1 -5 -8 7 -17 -19 -52
-44 -62 -10 -3 -18 -12 -18 -18 0 -8 5 -7 18 2 9 7 4 -1 -12 -19 -34 -36 -36
-38 -36 -17 0 8 20 34 44 59 25 24 42 46 39 49 -2 3 2 16 10 29 8 12 18 36 21
51 4 15 10 26 15 23 4 -3 8 9 9 27 l1 32 -59 -3 c-42 -3 -60 -8 -60 -17 0 -7
6 -16 13 -19 6 -4 2 -4 -10 -2 -15 2 -20 0 -16 -10 2 -7 11 -10 18 -8 7 3 16
1 20 -5 3 -6 0 -9 -8 -5 -8 3 -18 0 -22 -5 -3 -6 -10 -9 -15 -6 -5 3 -11 1
-15 -4 -3 -6 5 -8 20 -5 25 4 60 -17 48 -30 -4 -3 -1 -6 6 -6 7 0 9 -4 6 -10
-10 -17 -25 -11 -25 9 0 22 -15 35 -30 26 -6 -4 -2 -15 10 -27 16 -18 17 -24
7 -37 -11 -14 -10 -14 6 -2 26 21 21 -4 -8 -36 l-25 -28 6 55 c5 51 4 54 -11
35 -15 -19 -18 -85 -4 -85 4 0 6 -14 5 -31 -1 -27 3 -32 22 -34 13 -1 26 4 29
12 3 7 9 10 14 7 5 -3 16 13 25 35 8 22 23 42 31 45 13 5 13 4 4 -7 -32 -39
-61 -111 -61 -152 0 -24 -4 -47 -10 -50 -5 -3 -10 0 -10 7 0 7 -6 4 -12 -7
-12 -19 -12 -19 -18 5 -6 24 -7 23 -28 -17 -12 -23 -19 -49 -16 -57 3 -9 1
-16 -5 -16 -9 0 -11 21 -8 70 3 39 1 67 -4 64 -5 -3 -9 -12 -9 -20 0 -8 -5
-14 -10 -14 -7 0 -7 -6 0 -19 15 -30 13 -51 -6 -44 -9 3 -13 12 -9 22 5 13 4
13 -6 4 -10 -10 -8 -19 11 -45 18 -25 20 -30 6 -25 -10 4 -21 7 -26 7 -5 0
-10 12 -12 28 -3 22 -7 17 -22 -33 -10 -33 -23 -65 -28 -72 -7 -8 -3 -10 13
-6 12 4 28 21 37 42 8 20 17 31 19 24 2 -7 0 -21 -6 -32 -6 -10 -8 -33 -5 -50
6 -27 4 -31 -16 -31 -19 0 -21 -4 -16 -26 4 -16 3 -23 -3 -20 -16 10 -24 -60
-12 -95 6 -17 9 -34 7 -38 -2 -3 2 -31 9 -61 8 -34 14 -45 14 -29 1 25 31 65
31 41 0 -6 -4 -14 -10 -17 -14 -8 -13 -45 1 -45 7 0 9 -11 6 -29 -8 -37 17
-74 34 -51 8 12 10 8 7 -16 -2 -17 2 -36 10 -43 11 -11 10 -15 -5 -26 -20 -15
-40 -8 -24 8 16 16 14 22 -18 57 -16 18 -34 43 -40 56 -30 65 -34 74 -35 71
-1 -1 1 -50 4 -110 4 -84 2 -107 -8 -107 -15 0 -13 -41 3 -52 6 -5 6 -8 -1 -8
-7 0 -9 -11 -6 -25 4 -21 0 -25 -19 -26 l-24 -1 25 -7 c21 -6 25 -13 28 -53
l3 -45 52 -7 c29 -3 70 -6 92 -6 22 0 35 -4 29 -8 -16 -11 -18 -123 -2 -133 9
-6 6 -9 -9 -9 -19 0 -23 -6 -23 -29 0 -16 4 -31 10 -33 5 -1 12 -20 14 -41 5
-34 3 -38 -12 -32 -38 16 -49 15 -75 -5 -31 -25 -34 -50 -9 -73 24 -22 70 -22
96 1 19 15 19 15 7 0 -7 -10 -15 -41 -17 -70 -2 -29 -8 -54 -14 -56 -5 -2 -8
-7 -5 -12 8 -13 -285 -24 -299 -10 -7 7 -12 82 -14 224 l-3 213 -181 6 c-100
4 -182 6 -183 5 -1 -2 -5 -96 -8 -210 -4 -162 -2 -208 8 -212 7 -2 98 -14 201
-27 183 -21 200 -21 519 -10 230 9 344 9 376 2 25 -6 83 -12 130 -15 l84 -5
-64 10 c-79 12 -119 32 -127 64 -3 14 -15 26 -27 28 -12 2 66 5 174 6 154 1
199 4 215 16 23 18 220 22 209 5 -5 -7 15 -10 60 -8 l68 3 0 218 c-1 120 1
216 3 214 2 -2 12 -49 22 -104 18 -97 40 -151 57 -135 4 4 5 0 3 -8 -7 -22 10
-50 30 -50 16 1 16 1 -1 11 -11 7 -16 17 -12 29 4 12 -1 22 -12 29 -11 6 -13
11 -5 11 8 0 11 7 8 18 -3 9 -12 78 -21 151 -15 134 -21 151 -57 151 -17 0
-18 15 -16 178 0 97 3 162 5 144 3 -18 12 -41 22 -51 9 -9 27 -62 40 -121 34
-156 27 -143 75 -136 22 4 44 10 48 14 4 4 0 34 -8 66 -21 81 -11 81 16 -1 13
-37 24 -69 25 -71 2 -2 83 27 92 33 5 3 -128 377 -184 520 -110 280 -158 348
-297 420 -66 35 -76 43 -69 60 4 11 8 75 8 143 0 157 5 152 -159 151 -67 -1
-128 -3 -137 -6z m-512 -230 c-3 -10 -5 -4 -5 12 0 17 2 24 5 18 2 -7 2 -21 0
-30z m93 -18 c0 -4 -7 -19 -15 -35 -19 -36 -38 -40 -22 -5 7 14 16 25 20 25 5
0 5 5 2 10 -3 6 -1 10 4 10 6 0 11 -2 11 -5z m180 -185 c0 -5 -7 -10 -16 -10
-8 0 -12 5 -9 10 3 6 10 10 16 10 5 0 9 -4 9 -10z m-40 -51 c0 -11 -4 -18 -10
-14 -5 3 -7 12 -3 20 7 21 13 19 13 -6z m733 4 c-7 -2 -19 -2 -25 0 -7 3 -2 5
12 5 14 0 19 -2 13 -5z m47 -67 c0 -2 -13 -6 -30 -8 -16 -3 -30 -1 -30 4 0 4
14 8 30 8 17 0 30 -2 30 -4z m20 -66 c0 -6 -3 -10 -7 -10 -5 0 -19 -3 -33 -5
-22 -5 -21 -3 5 9 27 14 28 15 7 16 -13 0 -20 4 -17 10 7 12 45 -5 45 -20z
m-620 10 c0 -5 -2 -10 -4 -10 -3 0 -8 5 -11 10 -3 6 -1 10 4 10 6 0 11 -4 11
-10z m54 -4 c87 -36 124 -162 72 -250 -14 -24 -41 -54 -60 -65 -36 -23 -95
-27 -127 -11 -22 12 -52 66 -46 83 3 7 8 0 12 -15 4 -16 11 -25 16 -22 5 3 9
-2 9 -11 0 -9 5 -13 10 -10 6 3 10 2 10 -3 0 -5 9 -12 20 -15 11 -3 20 -2 20
3 0 4 11 5 25 2 15 -2 25 0 25 7 0 6 -17 11 -38 11 -42 0 -82 23 -82 47 0 11
6 14 23 9 52 -16 86 -17 106 -6 13 6 24 10 26 8 8 -8 -8 -48 -16 -42 -5 3 -9
0 -9 -5 0 -15 15 -14 28 2 48 59 67 161 35 192 -8 9 -18 13 -22 10 -3 -4 2
-13 13 -20 10 -8 16 -18 15 -24 -2 -5 -15 -1 -28 10 -23 18 -23 20 -7 38 17
18 17 20 -3 40 -12 12 -24 21 -28 21 -10 1 -49 30 -40 30 4 0 23 -6 41 -14z
m-94 -6 c-8 -5 -15 -14 -15 -20 0 -5 -4 -10 -9 -9 -5 0 -13 -5 -17 -13 -6 -9
-9 -9 -9 -1 0 15 39 53 54 53 6 0 4 -5 -4 -10z m707 4 c-3 -3 -12 -4 -19 -1
-8 3 -5 6 6 6 11 1 17 -2 13 -5z m-663 -30 c4 -9 2 -13 -5 -8 -7 4 -10 -1 -7
-11 1 -10 9 -20 17 -23 8 -3 11 0 8 6 -10 14 18 33 37 26 18 -7 20 -22 6 -44
-8 -12 -10 -9 -10 13 0 15 -4 27 -10 27 -9 0 -15 -21 -11 -42 2 -14 -20 -9
-43 10 -18 14 -21 23 -15 40 10 26 24 29 33 6z m-559 -14 c3 -5 1 -10 -4 -10
-6 0 -11 5 -11 10 0 6 2 10 4 10 3 0 8 -4 11 -10z m35 -26 c0 -8 -4 -14 -10
-14 -5 0 -10 9 -10 21 0 11 5 17 10 14 6 -3 10 -13 10 -21z m465 6 c-6 -9 2
-13 42 -26 7 -2 10 -10 6 -19 -4 -12 -8 -13 -13 -5 -6 9 -9 9 -15 0 -5 -8 -12
-2 -21 20 -17 39 -17 40 -3 40 5 0 7 -5 4 -10z m755 0 c0 -5 -5 -10 -11 -10
-5 0 -7 5 -4 10 3 6 8 10 11 10 2 0 4 -4 4 -10z m-50 -20 c0 -5 -7 -10 -15
-10 -8 0 -15 5 -15 10 0 6 7 10 15 10 8 0 15 -4 15 -10z m-582 -52 c4 2 8 -2
10 -10 3 -11 2 -11 -6 0 -8 11 -10 11 -15 -1 -3 -8 0 -20 6 -27 8 -8 5 -8 -10
1 -13 8 -23 17 -23 22 0 4 5 5 12 1 7 -4 8 -3 4 5 -4 6 -11 9 -16 6 -5 -3 -8
4 -7 14 1 19 2 19 20 3 11 -9 22 -16 25 -14z m553 9 c-7 -7 -14 -8 -21 -1 -6
6 -2 10 12 11 16 2 18 -1 9 -10z m-664 -39 c-3 -7 -5 -2 -5 12 0 14 2 19 5 13
2 -7 2 -19 0 -25z m96 -39 c3 -10 0 -22 -5 -26 -7 -4 -8 -1 -3 7 6 10 4 12 -9
7 -14 -5 -17 -3 -12 8 4 10 -1 15 -14 15 -13 0 -18 -5 -14 -15 4 -10 0 -15
-15 -15 -22 0 -30 33 -11 45 6 4 7 11 4 17 -4 6 0 14 7 19 16 10 64 -32 72
-62z m680 34 c-5 -12 -3 -14 6 -8 10 5 11 2 6 -14 -4 -14 -2 -21 7 -22 7 0 4
-4 -7 -9 -31 -13 -39 -12 -25 5 10 12 9 15 -5 15 -14 0 -15 3 -6 14 9 11 9 15
0 18 -7 2 -9 9 -5 16 10 17 36 3 29 -15z m-63 -8 c-8 -10 -9 -15 -2 -15 6 0 9
-7 6 -15 -4 -9 0 -15 7 -15 11 0 11 -3 -1 -10 -8 -5 -24 -9 -35 -9 -17 1 -17
2 -2 6 25 6 21 23 -5 24 -17 1 -19 2 -5 6 25 6 21 23 -5 24 -22 0 -22 1 -3 9
11 5 28 9 39 9 15 1 16 -2 6 -14z m-1246 -11 c4 -11 2 -15 -8 -11 -18 7 -26
-13 -26 -66 -1 -29 -3 -37 -9 -27 -12 20 3 100 20 111 18 11 16 12 23 -7z m51
-4 c3 -5 1 -10 -4 -10 -6 0 -11 5 -11 10 0 6 2 10 4 10 3 0 8 -4 11 -10z m412
-22 c-3 -8 -6 -5 -6 6 -1 11 2 17 5 13 3 -3 4 -12 1 -19z m538 -39 c-22 -22
-53 -50 -70 -61 -16 -11 -1 8 34 41 72 69 95 82 36 20z m30 1 c-27 -28 -28
-30 -8 -27 12 2 32 12 45 22 14 12 12 8 -6 -12 -16 -18 -32 -31 -35 -30 -7 2
-11 -7 -11 -25 0 -7 22 10 50 37 51 50 76 56 46 11 -18 -28 -21 -56 -6 -56 6
0 5 -8 -2 -19 -9 -15 -15 -17 -25 -9 -8 6 -16 9 -19 6 -8 -8 18 -58 27 -52 5
3 9 -5 8 -18 0 -13 -3 -17 -6 -10 -2 6 -11 12 -19 12 -11 0 -11 -5 -2 -25 6
-14 14 -25 18 -25 4 0 10 -9 13 -21 4 -14 2 -19 -8 -16 -16 7 -31 -71 -15 -87
7 -7 10 -6 10 2 0 7 6 12 14 12 8 0 28 17 45 37 17 21 31 33 31 27 0 -5 -13
-25 -30 -44 -31 -37 -39 -56 -17 -44 8 5 8 3 -2 -9 -7 -9 -17 -15 -20 -12 -4
2 -26 -15 -49 -38 -34 -34 -38 -43 -23 -43 11 0 19 3 18 6 -3 9 30 51 39 49 5
-1 11 0 14 1 16 6 41 7 35 2 -4 -4 -9 -5 -12 -3 -3 2 -26 -16 -50 -40 -25 -24
-42 -37 -38 -29 4 8 -6 2 -23 -14 -18 -16 -30 -32 -27 -35 7 -6 -46 -61 -58
-61 -5 0 -3 8 4 18 13 15 12 16 -4 3 -9 -8 -15 -16 -12 -19 3 -3 -2 -14 -12
-24 -21 -23 -6 -24 21 -1 20 17 20 17 7 1 -7 -10 -9 -18 -4 -18 12 0 95 85 88
91 -7 8 82 92 100 95 13 2 14 -1 4 -12 -6 -7 -15 -12 -19 -9 -3 2 -24 -14 -45
-35 -39 -40 -40 -55 -1 -23 12 10 5 0 -14 -21 -19 -21 -69 -65 -110 -99 -41
-33 -62 -46 -46 -29 34 37 25 43 -13 10 l-26 -23 24 28 c14 15 21 27 16 27 -4
0 0 9 10 20 22 25 9 26 -19 3 -12 -10 -3 2 19 27 22 24 31 38 20 30 -60 -42
-310 -258 -370 -319 -38 -39 -75 -71 -82 -71 -7 0 -13 -5 -13 -11 0 -5 6 -7
13 -3 7 5 7 1 -3 -12 -8 -10 -15 -20 -16 -22 -1 -2 -2 40 -3 93 -1 62 2 95 9
95 7 0 9 -22 6 -65 -3 -36 -2 -65 3 -65 13 0 39 34 56 73 12 28 21 37 39 37
24 0 24 1 19 82 -5 64 -3 79 7 73 8 -5 11 -25 8 -61 -4 -42 -1 -54 9 -54 8 0
19 13 24 29 8 22 15 28 30 24 15 -4 19 0 19 20 0 20 4 24 20 20 18 -5 20 0 20
46 0 28 5 51 10 51 6 0 10 9 10 20 0 11 -4 20 -10 20 -6 0 -10 28 -10 65 0 58
-2 65 -20 65 -14 0 -20 -7 -20 -24 0 -19 -4 -23 -20 -19 -18 5 -20 0 -22 -58
-1 -57 -2 -59 -5 -16 -3 33 -8 47 -19 47 -11 0 -14 -16 -14 -71 0 -63 -2 -70
-15 -59 -8 7 -15 18 -14 24 1 6 1 20 0 31 -1 15 -4 16 -13 7 -7 -7 -20 -12
-30 -12 -10 0 -19 -4 -19 -10 -1 -5 -2 -15 -3 -21 0 -6 -9 -16 -18 -23 -13
-10 -18 -27 -18 -62 0 -27 -5 -56 -10 -64 -7 -11 -10 1 -10 41 0 50 5 64 39
115 47 69 149 171 316 314 66 57 120 109 120 115 0 7 6 19 12 26 7 9 8 20 4
28 -6 9 -11 10 -15 2 -4 -6 -1 -11 6 -11 7 0 2 -7 -11 -16 -15 -11 -19 -19
-12 -23 7 -5 -1 -16 -21 -31 -31 -22 -32 -22 -14 -2 11 12 15 22 11 22 -5 0 1
10 13 23 12 13 20 26 17 29 -5 5 134 138 144 138 3 0 -8 -14 -24 -30z m-1025
-12 c0 -5 -4 -7 -9 -3 -5 3 -12 -3 -14 -12 -3 -10 -5 -3 -6 16 -1 29 1 32 14
21 8 -7 15 -17 15 -22z m26 -14 c-13 -12 -16 -12 -16 -2 0 19 24 42 28 28 2
-5 -4 -17 -12 -26z m1320 -20 c9 3 12 1 9 -4 -3 -6 -17 -10 -31 -10 -23 0 -24
2 -12 23 11 20 13 20 16 4 2 -11 9 -16 18 -13z m-1356 -30 c0 -8 -4 -13 -9
-10 -5 3 -12 -6 -16 -22 l-8 -27 -8 29 c-6 23 -4 32 9 42 19 14 32 9 32 -12z
m1269 17 c9 -6 6 -8 -13 -8 -14 0 -23 3 -20 8 7 11 15 11 33 0z m-1232 -27
c-3 -3 -12 -4 -19 -1 -8 3 -5 6 6 6 11 1 17 -2 13 -5z m863 -27 c0 -2 -10 -12
-22 -23 l-23 -19 19 23 c18 21 26 27 26 19z m495 -17 c3 -6 -1 -7 -9 -4 -18 7
-21 14 -7 14 6 0 13 -4 16 -10z m-1357 -23 c-1 -7 4 -23 11 -36 7 -13 8 -21 3
-17 -6 4 -15 -2 -21 -11 -9 -16 -10 -16 -11 -1 0 9 5 20 11 23 7 5 5 13 -6 25
-9 10 -14 24 -10 30 8 13 26 3 23 -13z m792 -21 c0 -2 -8 -10 -17 -17 -16 -13
-17 -12 -4 4 13 16 21 21 21 13z m310 -20 c0 -3 -4 -8 -10 -11 -5 -3 -10 -1
-10 4 0 6 5 11 10 11 6 0 10 -2 10 -4z m-370 -29 c0 -2 -10 -12 -22 -23 l-23
-19 19 23 c18 21 26 27 26 19z m-80 -71 c0 -2 -8 -10 -17 -17 -16 -13 -17 -12
-4 4 13 16 21 21 21 13z m350 -189 c0 -2 -10 -12 -22 -23 l-23 -19 19 23 c18
21 26 27 26 19z m-45 -77 c-16 -16 -33 -30 -39 -30 -5 0 3 14 19 30 16 17 33
30 39 30 5 0 -3 -13 -19 -30z m48 -27 c-47 -54 -55 -83 -32 -107 14 -15 11
-43 -7 -50 -34 -13 -44 -7 -38 23 9 44 -11 46 -69 5 -46 -33 -49 -34 -27 -10
24 28 212 196 218 196 2 0 -18 -25 -45 -57z m-163 -36 c0 -2 -10 -12 -22 -23
l-23 -19 19 23 c18 21 26 27 26 19z m-60 -50 c0 -2 -10 -12 -22 -23 l-23 -19
19 23 c18 21 26 27 26 19z m20 -10 c0 -2 -10 -12 -22 -23 l-23 -19 19 23 c18
21 26 27 26 19z m10 -20 c0 -2 -10 -12 -22 -23 l-23 -19 19 23 c18 21 26 27
26 19z m-100 -31 c0 -2 -8 -10 -17 -17 -16 -13 -17 -12 -4 4 13 16 21 21 21
13z m30 1 c0 -2 -10 -12 -22 -23 l-23 -19 19 23 c18 21 26 27 26 19z m0 -31
c0 -2 -8 -10 -17 -17 -16 -13 -17 -12 -4 4 13 16 21 21 21 13z m300 -9 c0 -4
0 -12 0 -18 0 -7 -12 -10 -29 -7 -17 2 -28 1 -25 -4 3 -4 -23 -8 -58 -8 -47 0
-59 3 -48 11 12 8 10 9 -9 4 -15 -5 -26 -2 -32 6 -6 11 1 16 29 20 47 8 172 5
172 -4z m-913 -19 c-3 -8 -6 -5 -6 6 -1 11 2 17 5 13 3 -3 4 -12 1 -19z m513
-1 c0 -2 -10 -12 -22 -23 l-23 -19 19 23 c18 21 26 27 26 19z m30 0 c0 -2 -12
-14 -27 -28 l-28 -24 24 28 c23 25 31 32 31 24z m10 -21 c0 -2 -8 -10 -17 -17
-16 -13 -17 -12 -4 4 13 16 21 21 21 13z m298 -16 c6 0 12 -4 12 -10 0 -5 -7
-10 -16 -10 -10 0 -14 -5 -10 -15 3 -8 8 -21 11 -28 9 -22 -52 -20 -65 2 -8
16 -6 20 8 24 11 3 6 7 -16 12 -48 11 -7 39 43 29 11 -2 26 -4 33 -4z m-80
-58 c2 -7 -6 -12 -17 -12 -12 0 -21 6 -21 14 0 17 32 15 38 -2z m-878 -42 c0
-20 -5 -30 -15 -30 -10 0 -15 10 -15 30 0 20 5 30 15 30 10 0 15 -10 15 -30z
m-602 -127 c-10 -2 -26 -2 -35 0 -10 3 -2 5 17 5 19 0 27 -2 18 -5z"/>
<path d="M1649 1163 l-24 -28 28 24 c15 14 27 26 27 28 0 8 -8 1 -31 -24z"/>
<path d="M1677 980 c-4 -15 0 -20 14 -20 22 0 25 13 5 29 -11 9 -15 7 -19 -9z"/>
<path d="M1530 929 c0 -6 -9 -9 -19 -6 -16 4 -21 -1 -23 -22 -3 -22 -7 -26
-30 -23 -21 3 -28 -1 -28 -14 0 -10 -7 -25 -16 -35 -11 -12 -14 -25 -9 -36 5
-10 9 -22 10 -28 1 -5 3 -14 5 -20 1 -5 3 -14 4 -20 1 -5 5 -20 9 -32 6 -15 2
-37 -12 -68 -14 -32 -16 -45 -7 -45 14 0 50 37 59 61 4 12 13 15 32 11 l27 -5
-4 62 c-2 46 0 60 9 57 14 -6 33 23 33 49 0 11 -5 15 -14 12 -20 -8 -27 43
-10 67 18 27 18 46 -1 46 -8 0 -15 -5 -15 -11z m-60 -163 c0 -2 -8 -10 -17
-17 -16 -13 -17 -12 -4 4 13 16 21 21 21 13z m19 -63 c0 -25 -1 -25 -8 -8 -5
11 -7 23 -4 28 8 14 13 7 12 -20z"/>
<path d="M1611 931 c0 -8 -8 -22 -17 -32 -9 -10 -11 -20 -6 -23 15 -9 34 21
29 46 -2 13 -5 17 -6 9z"/>
<path d="M1680 905 c-19 -21 -21 -25 -7 -25 18 0 24 -34 8 -44 -5 -3 -11 -15
-14 -26 -5 -19 -4 -19 19 -2 19 14 23 26 24 70 0 28 -1 52 -3 52 -2 0 -14 -11
-27 -25z"/>
<path d="M1610 801 c0 -30 3 -51 6 -48 11 11 13 71 3 87 -5 10 -8 -3 -9 -39z"/>
<path d="M1744 788 l-19 -23 23 19 c21 18 27 26 19 26 -2 0 -12 -10 -23 -22z"/>
<path d="M1040 1939 c0 -24 -4 -30 -15 -25 -10 4 -15 -1 -15 -15 0 -14 5 -19
14 -16 10 4 13 1 10 -7 -3 -8 -1 -17 5 -21 7 -3 11 3 11 16 0 17 3 19 14 10
11 -9 15 -9 19 1 3 7 6 -1 6 -19 1 -17 6 -35 11 -38 6 -4 10 20 10 64 0 38 -4
73 -10 76 -6 4 -10 -7 -10 -26 0 -26 -2 -29 -14 -20 -11 9 -15 9 -19 -1 -3 -7
-3 2 0 20 3 20 1 32 -6 32 -6 0 -11 -14 -11 -31z"/>
<path d="M213 1790 c-20 -8 -23 -16 -23 -70 l0 -61 33 3 32 3 0 64 c0 67 -6
75 -42 61z"/>
<path d="M197 1510 c-27 -5 -52 -11 -55 -15 -7 -6 -9 -357 -3 -410 1 -16 0
-55 -4 -85 -9 -74 4 -57 49 65 21 55 58 148 82 207 41 99 58 188 34 173 -5 -3
-9 2 -8 12 5 67 2 69 -95 53z m10 -50 c4 -13 3 -13 -6 0 -8 12 -13 12 -22 3
-9 -9 -9 -15 0 -27 7 -8 8 -17 3 -20 -12 -7 -23 30 -15 50 7 19 35 14 40 -6z
m-50 -52 c-3 -8 -6 -5 -6 6 -1 11 2 17 5 13 3 -3 4 -12 1 -19z m30 -40 c-3 -7
-5 -2 -5 12 0 14 2 19 5 13 2 -7 2 -19 0 -25z m18 -37 c-7 -23 -25 -27 -43 -9
-19 19 -14 26 16 30 34 4 35 4 27 -21z"/>
<path d="M170 1326 c7 -7 13 -7 20 0 6 6 3 10 -10 10 -13 0 -16 -4 -10 -10z"/>
<path d="M613 1351 c-13 -11 -23 -25 -23 -33 1 -8 4 -7 11 5 5 9 19 17 29 17
11 0 20 7 20 15 0 20 -10 18 -37 -4z"/>
<path d="M1683 1333 c1 -38 1 -38 18 -16 8 9 9 14 2 10 -7 -5 -13 1 -16 15 -3
14 -4 11 -4 -9z"/>
<path d="M278 1273 c-6 -16 -12 -56 -13 -91 -1 -34 -5 -65 -10 -70 -4 -4 -4 3
-1 15 4 13 3 31 -3 40 -9 15 -10 13 -11 -14 0 -17 -4 -33 -10 -35 -5 -1 -21
-34 -35 -73 -14 -38 -32 -84 -40 -102 -16 -32 -18 -100 -6 -143 7 -24 8 -24
15 8 4 18 14 45 22 60 8 15 14 37 14 48 0 12 7 25 16 28 12 4 15 15 12 36 -3
20 0 30 9 30 7 0 15 12 19 28 3 15 14 44 25 64 15 28 19 55 18 117 -1 45 -3
81 -5 81 -3 0 -9 -12 -16 -27z"/>
<path d="M1611 1284 c0 -11 3 -14 6 -6 3 7 2 16 -1 19 -3 4 -6 -2 -5 -13z"/>
<path d="M1580 1255 c0 -19 4 -35 8 -35 4 0 6 16 4 35 -2 19 -6 35 -8 35 -2 0
-4 -16 -4 -35z"/>
<path d="M293 1080 c-25 -56 -143 -358 -143 -369 0 -16 149 -15 156 2 2 7 3
98 2 202 -2 153 -5 185 -15 165z"/>
<path d="M1890 991 c0 -11 4 -22 9 -25 4 -3 6 6 3 19 -5 30 -12 33 -12 6z"/>
<path d="M411 744 c0 -11 3 -14 6 -6 3 7 2 16 -1 19 -3 4 -6 -2 -5 -13z"/>
<path d="M1993 723 c15 -2 37 -2 50 0 12 2 0 4 -28 4 -27 0 -38 -2 -22 -4z"/>
<path d="M2093 723 c9 -2 23 -2 30 0 6 3 -1 5 -18 5 -16 0 -22 -2 -12 -5z"/>
<path d="M2205 720 c3 -5 8 -10 11 -10 2 0 4 5 4 10 0 6 -5 10 -11 10 -5 0 -7
-4 -4 -10z"/>
<path d="M2517 723 c-8 -13 -45 -194 -48 -235 -2 -20 -1 -40 3 -43 7 -8 28 85
28 127 0 16 7 57 16 90 14 54 14 83 1 61z"/>
<path d="M1989 661 c-22 -17 -23 -25 -20 -95 1 -42 6 -88 11 -104 5 -17 6 -2
3 40 l-6 67 32 -12 c34 -13 56 -5 75 26 12 19 -6 38 -34 36 -35 -3 -63 2 -56
8 12 12 70 12 84 1 9 -8 12 -6 12 5 0 19 -37 47 -61 47 -9 0 -27 -9 -40 -19z"/>
<path d="M413 615 c0 -33 2 -45 4 -27 2 18 2 45 0 60 -2 15 -4 0 -4 -33z"/>
<path d="M2326 648 c-9 -12 -16 -32 -16 -43 0 -25 39 -65 63 -65 22 0 33 20
16 31 -10 6 -6 9 14 9 48 0 25 24 -29 31 -27 3 -42 8 -34 11 34 14 65 17 77 6
10 -8 13 -7 13 4 0 42 -78 54 -104 16z"/>
<path d="M2236 585 c11 -109 35 -182 54 -170 5 3 7 -3 5 -12 -1 -10 4 -28 12
-41 8 -13 17 -61 20 -107 4 -51 10 -82 16 -78 5 3 7 33 4 72 -8 88 -11 101
-28 113 -10 7 -11 11 -2 14 8 4 9 13 3 29 -5 12 -6 26 -3 29 4 3 -5 6 -20 6
-23 0 -26 5 -32 48 -4 26 -13 70 -21 97 l-13 50 5 -50z"/>
<path d="M2146 535 c-14 -92 -16 -95 -47 -95 -19 0 -29 -5 -30 -15 -1 -14 -3
-24 -9 -42 -7 -26 4 -241 13 -258 6 -11 10 -23 9 -27 -1 -5 2 -8 8 -8 13 0 13
26 -1 52 -19 35 -12 196 10 227 32 46 36 55 20 46 -9 -5 -8 -2 3 11 20 23 41
102 36 135 -2 16 -6 7 -12 -26z"/>
<path d="M560 434 c0 -16 5 -24 13 -21 6 2 20 0 30 -5 25 -13 21 1 -9 28 -32
30 -34 30 -34 -2z"/>
<path d="M595 450 c-3 -6 1 -7 9 -4 18 7 21 14 7 14 -6 0 -13 -4 -16 -10z"/>
<path d="M646 435 c13 -20 19 -23 30 -14 10 8 14 8 14 0 0 -20 16 -12 28 14 6
14 8 25 3 25 -5 0 -12 -6 -14 -12 -4 -10 -8 -9 -16 2 -10 13 -12 13 -21 0 -6
-10 -10 -11 -10 -2 0 6 -7 12 -15 12 -14 0 -13 -3 1 -25z"/>
<path d="M2407 360 c-3 -11 -2 -20 3 -20 12 0 21 28 11 35 -5 2 -11 -4 -14
-15z"/>
<path d="M494 329 c-3 -5 0 -9 5 -9 15 0 14 -53 -1 -68 -9 -9 -6 -12 15 -12
26 0 27 2 16 23 l-12 22 25 -23 25 -22 11 22 12 23 -6 -22 c-5 -20 -2 -23 28
-23 33 0 33 0 33 50 0 48 -1 50 -27 50 -18 0 -29 -7 -33 -20 -7 -23 -21 -26
-32 -7 -10 17 -51 28 -59 16z"/>
<path d="M1988 324 c-8 -17 4 -154 13 -148 11 7 12 124 0 143 -5 7 -10 9 -13
5z"/>
<path d="M2405 265 c-3 -31 -5 -59 -2 -61 3 -3 8 20 12 51 3 31 5 59 2 61 -3
3 -8 -20 -12 -51z"/>
<path d="M2407 172 c4 -16 -1 -21 -19 -25 -22 -4 -22 -4 3 -6 14 0 31 -7 38
-13 10 -11 10 -7 0 17 -16 38 -30 54 -22 27z"/>
<path d="M2312 139 c-16 -24 -15 -29 3 -29 8 0 19 9 24 19 14 26 -11 36 -27
10z"/>
<path d="M1953 116 c-18 -19 -42 -36 -54 -38 -39 -5 -33 -26 10 -33 27 -4 48
-2 68 9 l28 15 -35 2 c-25 1 -28 3 -12 6 19 4 21 7 11 19 -9 11 -8 14 4 14 8
0 17 6 20 14 3 8 18 16 34 19 25 4 24 4 -7 5 -28 1 -42 -5 -67 -32z"/>
<path d="M2086 61 c-11 -4 -15 -10 -10 -13 14 -9 114 3 114 13 0 11 -77 11
-104 0z"/>
<path d="M2215 60 c3 -5 28 -10 56 -10 27 0 49 5 49 10 0 6 -25 10 -56 10 -34
0 -53 -4 -49 -10z"/>
<path d="M2450 60 c0 -5 18 -10 39 -10 22 0 43 5 46 10 4 6 -12 10 -39 10 -25
0 -46 -4 -46 -10z"/>
<path d="M637 3 c354 -2 932 -2 1285 0 354 1 65 2 -642 2 -707 0 -996 -1 -643
-2z"/>
</g>
</svg>
