<?xml version="1.0" standalone="no"?>
<!DOCTYPE svg PUBLIC "-//W3C//DTD SVG 20010904//EN"
 "http://www.w3.org/TR/2001/REC-SVG-20010904/DTD/svg10.dtd">
<svg version="1.0" xmlns="http://www.w3.org/2000/svg"
 width="1024.000000pt" height="1024.000000pt" viewBox="0 0 1024.000000 1024.000000"
 preserveAspectRatio="xMidYMid meet">
<metadata>
Created by potrace 1.16, written by Peter Selinger 2001-2019
</metadata>
<g transform="translate(0.000000,1024.000000) scale(0.100000,-0.100000)"
fill="#000000" stroke="none">
<path d="M0 5118 l0 -5123 1795 1795 c987 987 1795 1796 1795 1798 0 1 -91
-59 -202 -133 -157 -104 -210 -135 -235 -135 -38 0 -73 29 -73 61 0 11 140
307 311 657 491 1004 1358 2780 1504 3078 138 283 151 302 203 289 69 -17 77
-31 409 -687 177 -348 341 -672 365 -720 l43 -88 2165 2165 2165 2165 -5123 0
-5122 0 0 -5122z m1408 1412 c178 -109 1896 -1268 1935 -1304 37 -36 47 -51
47 -78 0 -22 -40 -114 -125 -288 -69 -140 -262 -534 -428 -875 -327 -669 -325
-665 -402 -665 -59 0 -31 -65 -377 890 -658 1818 -808 2242 -808 2281 0 48 42
83 88 73 12 -2 44 -18 70 -34z"/>
<path d="M7680 2555 l-2555 -2555 2558 0 2557 0 0 2555 c0 1405 -1 2555 -3
2555 -1 0 -1152 -1150 -2557 -2555z"/>
</g>
</svg>
