<?xml version="1.0" standalone="no"?>
<!DOCTYPE svg PUBLIC "-//W3C//DTD SVG 20010904//EN"
 "http://www.w3.org/TR/2001/REC-SVG-20010904/DTD/svg10.dtd">
<svg version="1.0" xmlns="http://www.w3.org/2000/svg"
 width="1080.000000pt" height="1080.000000pt" viewBox="0 0 1080.000000 1080.000000"
 preserveAspectRatio="xMidYMid meet">
<metadata>
Created by potrace 1.16, written by Peter Selinger 2001-2019
</metadata>
<g transform="translate(0.000000,1080.000000) scale(0.100000,-0.100000)"
fill="#000000" stroke="none">
<path d="M3860 8741 c0 -25 12 -39 76 -88 160 -124 239 -179 380 -265 60 -38
65 -55 25 -87 -24 -20 -32 -34 -29 -51 5 -36 33 -36 74 -1 19 17 43 31 53 31
15 0 21 10 26 52 l7 52 -44 40 c-41 38 -95 75 -169 117 -16 9 -52 35 -81 58
-108 86 -250 171 -285 171 -30 0 -33 -3 -33 -29z"/>
<path d="M6722 8238 c-25 -25 -12 -45 46 -73 31 -15 90 -50 131 -76 41 -27 78
-49 82 -49 15 0 119 -70 119 -81 0 -23 -179 -69 -300 -76 -52 -3 -98 -10 -101
-15 -3 -5 -4 -20 -1 -33 3 -18 14 -27 39 -34 40 -11 148 -5 208 11 77 20 140
41 180 58 155 67 173 73 228 74 31 1 57 -2 57 -6 0 -3 -18 -37 -40 -75 -22
-37 -52 -92 -67 -120 -15 -30 -34 -53 -43 -53 -8 0 -48 9 -88 20 -108 30 -172
24 -172 -15 0 -13 73 -48 138 -66 71 -20 78 -50 27 -119 -14 -19 -50 -69 -80
-111 -32 -44 -68 -83 -89 -94 -24 -13 -36 -27 -36 -41 0 -28 21 -36 62 -22 36
12 177 151 197 196 31 66 37 76 62 95 l27 19 52 -28 c29 -16 55 -34 57 -41 3
-8 22 -13 44 -13 36 0 39 2 39 29 0 38 -31 75 -90 107 -62 34 -65 61 -17 125
19 24 42 58 51 74 9 17 28 48 41 70 34 55 34 119 1 141 -20 13 -40 14 -108 8
-46 -3 -95 -13 -110 -20 -43 -22 -87 -18 -97 9 -11 29 -31 45 -90 73 -42 19
-127 72 -233 145 -31 22 -107 26 -126 7z"/>
<path d="M2903 8213 c-19 -7 -16 -37 7 -66 11 -14 91 -60 187 -107 93 -46 184
-91 204 -101 20 -11 43 -19 50 -19 8 0 36 -11 64 -24 27 -14 75 -34 105 -46
62 -23 120 -56 120 -68 0 -15 -106 -170 -160 -232 -30 -35 -111 -122 -180
-193 -69 -70 -129 -135 -133 -143 -17 -31 -93 -94 -113 -94 -27 0 -40 -16 -49
-57 -3 -18 -17 -48 -31 -68 -13 -20 -24 -42 -24 -49 0 -7 -16 -26 -35 -43 -35
-31 -46 -63 -22 -63 6 0 27 16 46 35 19 20 39 34 45 32 10 -3 22 -107 27 -245
2 -61 1 -64 -37 -103 -39 -41 -113 -80 -234 -126 -143 -53 -170 -50 -127 16
15 22 27 47 27 56 0 8 16 32 35 54 36 40 44 61 23 61 -16 0 -64 -50 -156 -162
-40 -48 -77 -90 -82 -93 -18 -11 -11 -53 12 -69 37 -26 160 -21 233 10 33 14
79 31 101 39 23 9 73 33 110 55 38 22 74 40 81 40 16 0 18 -8 43 -235 30 -269
35 -302 60 -375 39 -115 61 -140 122 -140 76 0 169 179 252 485 9 33 21 74 27
90 6 17 14 46 19 65 4 19 17 60 29 90 12 29 20 61 18 70 -2 10 2 28 9 41 7 13
13 38 14 56 0 17 4 34 9 37 12 8 23 70 23 127 0 40 3 48 24 58 18 8 25 18 23
34 -1 12 3 40 9 61 12 42 10 52 -7 41 -6 -3 -11 -21 -11 -39 0 -25 -7 -38 -24
-50 -16 -10 -31 -36 -42 -73 -10 -32 -35 -110 -57 -173 -21 -63 -54 -160 -72
-215 -47 -140 -74 -215 -91 -246 -7 -15 -27 -62 -43 -106 -44 -119 -101 -233
-118 -233 -8 0 -20 15 -28 33 -12 29 -20 72 -55 292 -5 33 -13 133 -16 221
l-7 162 34 42 c19 23 57 70 85 103 78 95 88 118 80 200 -8 87 -18 107 -56 107
-35 0 -38 -13 -13 -65 17 -35 16 -37 -11 -92 -33 -67 -95 -142 -117 -143 -15
0 -18 18 -24 125 -4 68 -5 154 -3 190 l4 65 71 68 c39 37 79 82 87 100 9 17
21 32 26 32 10 0 236 223 348 342 34 37 62 73 62 81 0 8 9 25 19 39 31 39 36
74 16 118 -15 34 -31 46 -104 84 -48 24 -109 50 -136 57 -28 6 -66 21 -85 32
-19 11 -91 45 -160 76 -69 31 -155 73 -191 94 -63 35 -109 49 -136 40z"/>
<path d="M3850 8028 c-29 -15 -46 -31 -48 -44 -7 -47 110 -93 233 -93 86 -1
315 35 345 54 27 17 2 -74 -53 -192 -30 -65 -60 -136 -67 -158 -7 -22 -18 -47
-25 -55 -11 -14 -58 -131 -140 -345 -21 -55 -60 -147 -88 -204 -57 -121 -69
-177 -42 -198 26 -18 69 -16 113 6 41 21 191 159 220 202 9 14 44 57 77 94 33
37 64 75 69 84 5 9 19 23 30 31 12 8 39 31 61 51 43 39 114 79 141 79 29 0 82
-48 94 -86 15 -44 10 -81 -25 -170 -43 -114 -50 -127 -104 -190 -28 -34 -51
-67 -51 -73 0 -16 19 -14 36 4 9 8 25 15 37 15 26 0 81 62 90 102 4 15 16 32
27 38 26 14 44 50 64 128 38 150 8 219 -117 276 -30 14 -52 16 -97 11 -76 -9
-129 -43 -206 -131 -32 -37 -81 -91 -109 -120 -27 -28 -87 -89 -133 -136 -129
-134 -164 -126 -88 21 25 49 46 95 46 101 0 7 18 53 40 102 22 49 52 124 66
165 14 42 37 93 50 112 13 20 24 48 24 63 0 15 6 31 13 35 16 10 102 185 112
228 3 16 22 54 41 85 31 51 45 109 27 111 -70 7 -129 6 -144 -1 -28 -15 -171
-38 -286 -46 -123 -8 -167 4 -157 42 8 31 -16 32 -76 2z"/>
<path d="M5707 7673 c-28 -27 30 -76 128 -106 33 -10 69 -27 80 -37 24 -23
125 -46 279 -66 27 -3 60 -13 73 -21 43 -29 103 12 103 70 0 14 -6 29 -13 35
-7 7 -67 18 -133 26 -154 19 -350 61 -406 86 -43 19 -99 26 -111 13z"/>
<path d="M6709 7563 c-18 -21 -24 -161 -11 -228 23 -118 54 -231 107 -400 21
-64 67 -147 103 -182 30 -31 37 -33 100 -33 62 0 72 3 129 40 67 44 275 244
338 325 44 57 133 145 185 184 19 14 41 34 49 45 22 29 111 67 132 55 44 -23
35 -110 -21 -196 -41 -62 -195 -243 -208 -243 -4 0 -37 -29 -74 -63 -36 -34
-79 -69 -95 -78 -18 -10 -27 -23 -26 -35 1 -14 -7 -23 -27 -31 -32 -12 -50 -2
-50 29 0 57 -44 86 -81 52 -16 -14 -16 -19 -3 -49 27 -66 20 -87 -42 -126
-132 -80 -300 -200 -326 -231 -17 -18 -26 -98 -12 -98 6 0 71 48 99 73 11 10
38 28 59 39 21 11 51 31 65 44 14 13 34 24 44 24 10 0 42 18 71 40 29 22 58
40 64 40 6 0 13 -36 17 -87 3 -49 12 -131 20 -183 16 -102 33 -130 81 -130 30
0 111 77 140 133 46 89 84 170 84 180 0 6 11 22 23 36 13 15 33 52 45 83 11
31 29 65 39 76 10 10 23 27 29 38 11 18 14 18 40 4 36 -19 49 -65 64 -228 14
-151 16 -162 39 -162 38 0 44 24 38 148 -10 207 -49 330 -112 353 -19 7 -34
17 -32 22 3 11 172 87 194 87 9 0 24 6 32 14 9 8 51 17 94 21 l77 7 49 -48
c65 -65 75 -103 68 -264 -7 -167 -46 -305 -124 -445 -31 -55 -71 -116 -87
-136 -17 -20 -43 -52 -58 -72 -16 -20 -62 -61 -103 -92 -63 -48 -85 -59 -139
-68 -54 -9 -70 -8 -110 7 -59 23 -110 81 -161 184 -28 57 -46 81 -59 81 -16 1
-18 -4 -13 -31 5 -34 19 -71 36 -98 6 -8 12 -26 15 -40 3 -14 34 -54 68 -88
48 -47 75 -66 113 -78 61 -18 155 -10 203 17 18 10 40 19 49 19 20 0 200 175
220 215 9 17 29 45 44 63 16 18 29 41 29 51 0 10 9 26 20 36 10 9 27 40 36 69
9 28 27 67 39 87 58 90 85 332 55 484 -13 66 -17 73 -78 132 -74 71 -89 76
-213 71 -92 -5 -161 -27 -299 -97 -64 -33 -80 -38 -89 -27 -9 11 -4 19 24 36
19 12 35 26 35 30 0 5 29 37 64 70 37 36 71 79 81 103 9 23 25 61 36 85 20 45
25 125 10 165 -5 13 -26 35 -46 47 -52 32 -109 24 -183 -27 -31 -22 -71 -48
-89 -56 -17 -9 -127 -113 -245 -230 -205 -205 -284 -271 -357 -295 -32 -11
-35 -10 -76 31 -26 26 -51 65 -65 102 -12 33 -31 83 -42 110 -10 28 -37 124
-59 215 -34 138 -40 175 -36 228 6 56 4 62 -12 62 -10 0 -25 -7 -32 -17z
m1036 -762 c3 -6 -3 -18 -14 -28 -27 -26 -92 -129 -151 -241 -89 -168 -144
-252 -164 -252 -20 0 -26 32 -32 160 -2 63 -7 124 -9 136 -6 26 11 41 93 83
34 17 95 53 135 79 118 77 129 82 142 63z"/>
<path d="M6596 7378 c-13 -40 -17 -74 -22 -173 -4 -60 -10 -114 -15 -119 -5
-6 -9 -22 -9 -37 0 -15 -5 -40 -12 -56 -6 -15 -15 -57 -19 -93 -14 -118 -30
-194 -55 -258 -13 -34 -24 -77 -24 -95 0 -17 -7 -41 -15 -51 -8 -11 -15 -30
-15 -42 0 -33 -37 -151 -71 -222 -50 -109 -106 -144 -128 -81 -6 18 -11 42
-11 53 0 12 -15 53 -33 91 -35 73 -58 174 -76 331 -19 161 -18 166 42 230 28
30 56 63 61 72 5 8 26 38 47 66 39 52 49 92 27 114 -21 21 -32 13 -68 -49 -38
-66 -104 -134 -121 -123 -7 4 -10 54 -9 133 2 156 4 148 -20 126 -29 -27 -40
-70 -50 -209 -5 -80 -14 -136 -23 -149 -18 -27 -106 -60 -138 -52 -20 5 -33
-3 -72 -45 -50 -54 -57 -78 -30 -105 29 -29 119 -3 217 64 17 11 33 18 37 16
3 -3 9 -37 13 -77 4 -40 14 -104 22 -143 8 -38 19 -96 25 -127 11 -66 58 -199
97 -275 42 -82 101 -104 169 -62 27 17 45 43 78 114 24 51 46 113 50 136 4 24
14 58 22 76 8 18 13 38 10 45 -2 7 2 28 9 47 8 18 14 47 14 64 0 17 7 51 16
74 24 61 46 57 82 -14 16 -32 74 -146 128 -253 55 -107 107 -218 117 -247 10
-29 24 -59 33 -67 15 -15 43 -11 57 8 13 19 -4 87 -39 154 -18 36 -31 69 -28
73 2 4 -11 36 -30 71 -20 35 -42 82 -50 105 -8 23 -30 66 -48 95 -19 29 -40
69 -48 88 -19 47 -79 150 -104 178 -19 21 -19 27 -7 120 17 133 23 206 21 281
0 43 4 71 15 88 12 18 14 36 9 69 -6 45 -21 66 -28 42z"/>
<path d="M5544 7207 c-3 -9 0 -25 6 -37 19 -35 29 -135 20 -192 -16 -102 -69
-246 -164 -451 -53 -113 -120 -245 -149 -294 -30 -48 -64 -107 -76 -131 -24
-48 -57 -68 -95 -58 -24 6 -26 11 -26 59 0 29 -7 77 -15 107 -9 30 -21 100
-27 155 -12 112 -56 249 -95 296 -21 25 -32 29 -73 29 -46 0 -49 -2 -121 -77
-61 -64 -85 -100 -137 -204 -34 -69 -62 -129 -62 -134 0 -18 -73 -116 -83
-112 -8 2 -13 37 -14 98 -2 52 -10 159 -19 239 -18 160 -39 217 -94 245 -54
28 -128 -11 -118 -62 3 -14 12 -17 38 -15 19 1 41 -2 48 -7 29 -18 51 -188 58
-431 7 -240 13 -280 49 -280 31 0 85 68 126 160 6 14 16 34 22 45 63 114 122
229 138 269 11 28 35 67 52 87 18 21 39 46 47 58 8 11 27 23 41 26 51 12 80
-45 115 -225 18 -93 17 -87 39 -249 23 -165 41 -191 131 -191 43 0 51 4 90 45
24 25 53 64 65 87 12 24 29 52 38 63 27 30 72 116 135 255 32 69 68 146 82
171 13 26 24 53 24 60 0 15 42 132 71 197 11 24 22 79 25 127 7 85 0 128 -40
245 -12 37 -42 52 -52 27z"/>
<path d="M3940 6630 c-6 -11 -15 -92 -20 -181 -6 -89 -17 -184 -25 -213 -8
-28 -22 -89 -30 -135 -9 -52 -25 -101 -44 -135 -28 -49 -61 -149 -61 -187 0
-19 52 -42 74 -33 12 5 41 62 76 151 7 18 10 44 6 57 -3 14 2 41 14 68 11 23
20 56 20 71 0 15 8 42 17 60 10 18 21 68 25 112 17 178 28 360 23 372 -7 21
-63 16 -75 -7z"/>
<path d="M3662 4898 c-14 -14 -15 -67 -3 -123 5 -22 11 -58 13 -80 l3 -40 -45
-7 c-91 -13 -310 -23 -512 -22 l-208 1 0 -47 0 -48 225 -7 c155 -5 277 -3 390
5 91 7 168 10 172 6 8 -8 25 -64 54 -181 11 -44 26 -93 33 -110 19 -42 30 -79
28 -89 -9 -30 94 -106 143 -106 33 0 38 25 11 57 -39 49 -75 119 -91 178 -8
31 -19 71 -24 88 -40 128 -53 178 -48 184 4 3 42 9 84 14 97 9 218 31 353 63
100 24 110 22 110 -18 0 -63 -91 -314 -162 -445 -94 -176 -203 -358 -228 -381
-3 -3 -23 -29 -45 -59 -21 -30 -48 -64 -59 -76 -12 -12 -39 -45 -61 -74 -22
-29 -51 -65 -65 -79 -14 -15 -41 -48 -60 -74 -41 -54 -65 -68 -121 -68 -42 0
-106 -27 -129 -55 -22 -27 0 -31 41 -7 32 19 43 21 55 11 8 -6 14 -16 14 -22
0 -6 -41 -54 -91 -106 -50 -53 -94 -99 -98 -103 -3 -4 -46 -44 -96 -89 -49
-45 -94 -89 -98 -98 -5 -9 -25 -30 -45 -48 -30 -26 -34 -35 -24 -45 19 -19 95
24 162 92 31 30 92 86 136 123 44 38 88 82 99 98 11 17 32 37 47 45 15 8 35
26 44 39 9 14 25 25 36 25 22 0 108 -87 108 -109 0 -7 11 -34 24 -60 14 -25
37 -71 51 -101 15 -30 33 -62 40 -70 6 -8 15 -23 18 -33 15 -42 89 -125 127
-142 l40 -18 40 43 c40 43 51 77 28 85 -7 2 -30 6 -52 10 -49 8 -76 38 -121
133 -20 43 -40 84 -45 92 -6 8 -23 40 -39 70 -16 30 -54 88 -85 128 -31 40
-56 75 -56 77 0 3 48 54 106 113 59 59 123 130 142 157 19 28 49 66 66 85 17
19 41 51 54 72 12 20 29 39 38 42 8 3 26 31 40 63 14 31 38 73 54 93 16 20 49
76 73 126 24 49 57 114 73 144 69 131 124 275 124 326 0 21 11 59 23 82 l22
44 109 28 c111 28 145 50 146 92 0 41 -87 50 -172 18 -29 -11 -74 -23 -100
-26 -46 -6 -47 -6 -71 33 -25 40 -83 73 -127 73 -34 0 -24 -40 22 -82 23 -21
38 -41 35 -45 -14 -13 -351 -75 -493 -90 -69 -7 -85 10 -114 120 -24 91 -47
126 -68 105z"/>
<path d="M7155 4810 c-38 -10 -135 -47 -245 -92 -98 -41 -169 -81 -330 -187
-48 -32 -76 -55 -168 -138 -14 -13 -28 -23 -32 -23 -15 0 -27 26 -33 65 -9 68
-24 95 -52 95 -22 0 -25 -4 -25 -39 0 -22 7 -83 16 -136 l17 -97 -24 -41 c-12
-23 -38 -63 -56 -89 -21 -29 -30 -49 -23 -53 12 -8 70 51 70 71 0 20 14 17 35
-6 25 -27 44 -203 50 -460 5 -196 -6 -374 -33 -545 -11 -69 -76 -215 -96 -215
-19 0 -53 40 -71 83 -16 39 -24 44 -42 26 -24 -24 34 -145 89 -184 46 -32 100
-7 114 52 4 16 18 40 31 55 20 21 26 39 29 95 3 37 12 79 21 92 19 29 20 49
27 331 7 245 8 250 66 250 37 0 106 25 430 153 63 25 126 48 141 51 14 3 45
19 70 36 82 56 124 29 48 -32 -66 -52 -154 -153 -204 -233 -10 -16 -42 -55
-69 -86 -28 -30 -78 -88 -111 -128 -33 -40 -73 -87 -88 -104 -21 -24 -27 -40
-25 -67 3 -34 4 -35 48 -38 69 -5 157 17 245 61 44 22 109 54 145 72 36 18 80
45 97 59 43 37 122 71 135 58 5 -5 14 -63 19 -128 5 -66 16 -159 24 -209 17
-107 34 -222 46 -325 5 -41 12 -95 15 -120 3 -25 5 -74 4 -109 0 -44 4 -71 16
-89 10 -15 18 -52 20 -96 4 -73 11 -109 44 -211 24 -72 26 -131 5 -139 -8 -3
-30 1 -49 9 -20 8 -44 15 -54 15 -10 0 -43 24 -74 53 -31 28 -71 66 -89 83
-19 17 -44 42 -56 57 -23 29 -53 36 -53 13 0 -21 58 -104 81 -116 10 -6 19
-17 19 -24 0 -20 104 -104 179 -146 35 -19 80 -49 100 -66 50 -43 74 -54 116
-54 30 0 36 3 31 16 -3 8 -2 23 4 33 12 23 -10 96 -66 218 -8 17 -14 50 -14
73 0 23 -6 54 -14 68 -15 30 -36 112 -36 142 0 10 -9 34 -19 52 -16 27 -21 60
-25 178 -3 80 -17 228 -30 330 -26 189 -44 386 -46 497 l-1 61 56 48 c63 55
124 88 213 115 63 20 85 48 40 50 -83 3 -126 -5 -194 -37 -40 -19 -87 -34
-104 -34 l-32 0 4 183 c3 158 6 186 23 214 19 31 19 32 1 52 -16 17 -20 40
-22 133 -5 141 -22 316 -35 339 -5 10 -9 29 -9 43 0 17 -16 43 -48 76 -47 48
-50 50 -103 49 -30 -1 -67 -5 -84 -9z m99 -117 c29 -44 49 -114 66 -233 14
-90 17 -262 6 -297 -8 -25 -75 -58 -291 -145 -82 -33 -180 -72 -216 -88 -36
-16 -110 -40 -165 -55 -54 -14 -120 -35 -147 -46 -63 -26 -82 -16 -91 51 -4
28 -4 55 -1 59 3 5 -2 69 -10 143 -23 207 -25 196 44 246 32 24 79 63 104 87
26 24 56 49 69 56 13 6 66 40 118 74 93 60 241 128 309 141 19 4 55 15 80 25
73 29 97 25 125 -18z m64 -731 c19 -13 28 -290 10 -314 -7 -10 -88 -55 -180
-102 -92 -46 -179 -93 -194 -105 -28 -22 -60 -27 -82 -12 -11 7 -10 16 7 49
18 35 122 161 202 245 12 12 33 40 47 62 23 37 160 183 172 184 3 1 11 -3 18
-7z"/>
<path d="M4732 3658 c-7 -7 -12 -21 -12 -32 0 -43 -159 -276 -188 -276 -6 0
-19 12 -28 28 -61 99 -104 142 -141 142 -27 0 -12 -56 27 -108 22 -29 40 -60
40 -70 0 -10 6 -26 13 -37 30 -45 28 -54 -26 -111 -81 -86 -189 -163 -265
-190 -48 -16 -68 -28 -70 -42 -5 -29 24 -34 76 -13 26 11 63 22 83 25 20 4 54
20 75 36 22 16 57 42 79 56 22 15 52 38 67 51 37 35 58 24 114 -60 46 -70 117
-138 179 -169 17 -9 66 -24 109 -33 170 -38 324 10 554 173 34 24 62 48 62 53
0 6 38 50 85 100 56 59 85 97 85 112 0 15 14 35 39 55 31 25 39 39 45 78 7 55
-6 78 -24 43 -7 -13 -38 -49 -69 -79 -31 -30 -79 -83 -108 -118 -97 -117 -289
-255 -415 -299 -66 -23 -82 -25 -171 -19 -54 3 -111 13 -126 20 -77 40 -221
208 -221 258 0 26 45 104 75 128 27 22 133 188 152 238 16 43 16 45 -2 58 -23
17 -77 18 -93 2z"/>
</g>
</svg>
