<?xml version="1.0" standalone="no"?>
<!DOCTYPE svg PUBLIC "-//W3C//DTD SVG 20010904//EN"
 "http://www.w3.org/TR/2001/REC-SVG-20010904/DTD/svg10.dtd">
<svg version="1.0" xmlns="http://www.w3.org/2000/svg"
 width="500.000000pt" height="500.000000pt" viewBox="0 0 500.000000 500.000000"
 preserveAspectRatio="xMidYMid meet">
<metadata>
Created by potrace 1.16, written by Peter Selinger 2001-2019
</metadata>
<g transform="translate(0.000000,500.000000) scale(0.100000,-0.100000)"
fill="#000000" stroke="none">
<path d="M805 4425 l-25 -24 0 -1920 0 -1920 24 -28 24 -28 352 0 352 0 24 28
24 28 0 587 0 587 259 259 258 258 130 -178 c71 -99 343 -474 604 -834 261
-361 486 -670 499 -687 13 -18 37 -37 53 -43 19 -6 182 -10 444 -10 455 0 471
2 490 57 8 21 7 37 -2 59 -7 16 -387 506 -844 1089 -457 583 -831 1063 -831
1066 0 4 192 193 428 420 235 227 490 474 567 549 77 75 214 208 305 295 327
317 310 298 310 334 0 21 -9 41 -25 56 l-24 25 -473 0 -472 0 -838 -837 -838
-838 0 813 0 813 -25 24 -24 25 -351 0 -351 0 -24 -25z"/>
</g>
</svg>
