<?xml version="1.0" standalone="no"?>
<!DOCTYPE svg PUBLIC "-//W3C//DTD SVG 20010904//EN"
 "http://www.w3.org/TR/2001/REC-SVG-20010904/DTD/svg10.dtd">
<svg version="1.0" xmlns="http://www.w3.org/2000/svg"
 width="1080.000000pt" height="1080.000000pt" viewBox="0 0 1080.000000 1080.000000"
 preserveAspectRatio="xMidYMid meet">
<metadata>
Created by potrace 1.16, written by Peter Selinger 2001-2019
</metadata>
<g transform="translate(0.000000,1080.000000) scale(0.100000,-0.100000)"
fill="#000000" stroke="none">
<path d="M1575 6870 c-12 -20 9 -61 44 -82 20 -12 71 -51 114 -85 43 -35 82
-63 86 -63 5 0 33 -20 62 -45 29 -25 57 -45 61 -45 17 0 136 -81 142 -97 4
-11 -4 -25 -25 -42 -23 -19 -30 -33 -28 -51 6 -36 50 -40 76 -6 11 13 30 26
43 28 26 3 37 29 39 88 1 30 -5 40 -41 68 -59 45 -137 99 -173 118 -16 9 -50
33 -75 53 -45 37 -195 138 -237 160 -26 13 -80 15 -88 1z"/>
<path d="M6723 6364 c-3 -8 -3 -55 1 -102 4 -48 8 -98 9 -112 2 -23 -2 -25
-53 -32 -259 -33 -483 -34 -556 -3 -29 12 -36 12 -49 -1 -16 -16 -20 -52 -7
-70 4 -6 23 -20 42 -30 31 -17 59 -19 255 -19 121 0 258 2 304 5 l84 5 14 -50
c7 -27 22 -93 33 -145 11 -52 25 -113 30 -135 5 -22 12 -52 15 -67 5 -29 80
-88 110 -88 25 0 29 29 8 58 -31 43 -61 130 -83 237 -10 55 -24 116 -30 135
-20 68 -15 78 38 85 59 8 153 30 262 61 102 29 97 29 105 4 17 -52 -93 -399
-201 -638 -13 -29 -24 -55 -24 -58 0 -11 -124 -229 -152 -268 -15 -22 -28 -44
-28 -48 0 -11 -135 -220 -156 -240 -11 -11 -33 -18 -56 -18 -30 0 -47 -8 -76
-34 -44 -41 -37 -57 13 -30 31 16 37 17 45 5 11 -19 3 -33 -65 -116 -30 -37
-55 -71 -55 -76 0 -5 -21 -33 -47 -63 -88 -100 -123 -144 -123 -155 0 -6 -14
-26 -31 -46 -24 -27 -29 -39 -21 -47 16 -16 55 6 98 56 19 23 65 75 101 116
37 41 78 93 92 116 43 67 109 137 124 131 19 -7 57 -77 86 -157 70 -192 133
-318 175 -352 23 -19 56 -24 56 -9 0 5 12 23 26 40 36 43 29 71 -21 85 -33 10
-45 20 -67 61 -16 28 -35 75 -44 105 -19 63 -103 241 -140 295 -13 20 -22 41
-19 46 4 5 49 65 101 134 52 70 94 132 94 139 0 7 13 31 29 53 16 22 38 58 49
80 11 22 27 45 36 52 8 7 22 36 32 64 9 29 29 75 44 102 15 28 42 91 60 140
19 50 37 95 42 101 24 32 104 303 111 377 8 83 21 98 112 126 84 27 109 50
103 98 -3 25 -7 28 -45 31 -27 2 -55 -4 -80 -17 -22 -10 -56 -22 -76 -26 -36
-7 -38 -6 -52 29 -22 52 -101 96 -120 66 -8 -12 11 -48 43 -82 14 -15 23 -30
20 -34 -9 -8 -134 -40 -277 -69 -157 -33 -160 -31 -186 87 -25 118 -45 155
-62 112z"/>
<path d="M4436 6344 c-13 -33 -4 -42 92 -94 53 -29 110 -63 125 -76 16 -13 34
-24 42 -24 22 0 114 -64 114 -80 1 -26 -185 -73 -289 -74 -91 -1 -110 -7 -110
-35 0 -42 23 -55 111 -57 94 -4 164 13 314 73 175 70 208 80 252 75 l43 -4
-32 -57 c-17 -31 -47 -84 -65 -118 -19 -34 -38 -65 -44 -68 -5 -4 -43 3 -84
14 -116 32 -185 26 -185 -16 0 -15 66 -48 125 -63 56 -13 79 -32 71 -56 -19
-60 -159 -247 -203 -271 -23 -12 -33 -25 -33 -41 0 -29 21 -37 64 -22 45 15
198 177 209 223 12 44 45 77 77 77 26 0 101 -43 108 -61 2 -5 21 -9 43 -9 36
0 39 2 39 29 0 38 -31 75 -91 108 -48 27 -50 29 -44 63 4 19 18 47 31 63 14
16 34 46 45 66 11 20 31 51 44 70 35 48 36 132 1 150 -29 16 -172 6 -222 -15
-50 -21 -83 -18 -93 9 -12 30 -36 50 -101 82 -30 15 -98 56 -151 91 -86 58
-101 64 -146 64 -37 0 -53 -4 -57 -16z"/>
<path d="M623 6323 c-19 -7 -16 -37 8 -67 27 -34 296 -172 449 -230 104 -40
257 -108 269 -121 12 -12 6 -26 -45 -103 -62 -93 -143 -189 -305 -357 -54 -55
-121 -126 -149 -157 -41 -44 -60 -58 -81 -58 -31 0 -43 -16 -53 -71 -3 -19
-17 -51 -31 -69 -14 -19 -25 -38 -25 -43 0 -4 -13 -20 -30 -34 -18 -15 -30
-34 -30 -49 0 -33 8 -31 57 18 27 26 46 38 52 33 5 -6 12 -77 16 -158 l7 -149
-51 -49 c-28 -27 -57 -49 -65 -49 -7 0 -33 -11 -57 -24 -76 -42 -235 -91 -244
-75 -3 4 5 25 19 46 14 21 28 50 31 64 4 15 20 39 36 55 27 26 39 64 21 64
-24 0 -252 -271 -252 -299 0 -40 35 -55 120 -52 74 2 105 10 187 47 17 8 37
14 45 14 7 0 53 23 102 50 48 27 92 48 96 45 11 -7 17 -50 35 -225 20 -206 33
-284 61 -377 30 -100 65 -143 117 -143 88 0 159 127 252 450 43 147 67 224 82
260 9 19 19 58 24 85 9 57 20 105 44 190 9 33 14 72 11 87 -4 22 0 31 18 43
16 11 25 29 30 58 3 23 9 52 12 65 5 16 2 22 -10 22 -12 0 -16 -10 -16 -39 0
-30 -5 -41 -18 -45 -21 -7 -49 -62 -62 -120 -5 -23 -27 -93 -50 -156 -22 -63
-53 -151 -67 -195 -14 -44 -41 -118 -61 -165 -19 -47 -46 -119 -61 -160 -35
-100 -113 -259 -127 -260 -38 -1 -87 278 -101 565 l-6 144 34 41 c19 22 50 59
70 83 20 23 52 65 71 94 34 51 34 52 27 129 -8 79 -17 97 -57 109 -32 9 -39
-17 -17 -65 18 -39 17 -40 -9 -95 -27 -58 -100 -145 -121 -145 -15 0 -32 285
-21 345 7 37 25 57 240 271 177 178 224 226 289 297 37 41 67 79 67 85 0 6 11
28 25 48 30 45 32 88 5 132 -16 26 -43 44 -113 77 -51 23 -107 46 -126 50 -37
8 -198 81 -396 181 -124 62 -144 69 -172 57z"/>
<path d="M9288 6221 c-73 -38 -167 -95 -208 -127 -77 -61 -240 -220 -240 -235
0 -5 -9 -9 -20 -9 -16 0 -20 7 -21 38 -1 59 -22 106 -49 110 -22 4 -22 2 -16
-65 21 -233 23 -210 -23 -301 -22 -45 -41 -84 -41 -87 0 -17 24 0 49 35 45 62
52 41 68 -193 15 -217 10 -685 -8 -718 -5 -10 -9 -37 -9 -61 0 -45 -57 -218
-72 -218 -12 0 -46 59 -53 92 -10 45 -35 35 -35 -13 0 -42 27 -105 64 -146 39
-45 87 -19 102 55 3 17 15 39 25 48 15 14 19 31 19 86 0 43 6 80 16 99 12 24
16 83 21 292 5 280 7 287 57 287 19 0 150 62 326 155 47 25 90 45 97 45 6 0
32 16 57 35 26 19 51 35 56 35 25 0 6 -40 -40 -85 -27 -27 -50 -54 -50 -60 0
-6 -20 -42 -45 -79 -25 -38 -45 -73 -45 -78 0 -5 -25 -44 -55 -87 -30 -43 -55
-82 -55 -86 0 -4 -9 -19 -20 -33 -67 -87 -91 -134 -88 -170 3 -33 6 -37 33
-40 66 -8 134 18 248 95 62 41 127 91 145 109 31 32 76 53 88 41 3 -3 10 -72
15 -154 5 -81 14 -172 19 -202 6 -30 10 -78 10 -107 0 -29 4 -75 9 -101 5 -26
15 -127 21 -223 6 -96 15 -188 20 -205 5 -16 12 -61 15 -100 2 -38 12 -101 21
-140 23 -97 32 -175 22 -182 -18 -10 -101 22 -117 46 -9 14 -35 44 -58 67 -23
24 -51 61 -63 83 -20 39 -42 52 -55 31 -7 -11 37 -101 59 -119 9 -8 16 -18 16
-23 0 -21 75 -100 147 -155 41 -31 79 -65 84 -76 11 -20 75 -51 88 -42 14 8
21 88 12 125 -5 19 -19 68 -31 109 -11 40 -22 90 -24 110 -5 47 -33 192 -51
261 -8 30 -19 141 -25 245 -6 105 -17 244 -25 310 -8 66 -18 210 -22 320 l-6
201 33 37 c39 45 108 93 169 117 53 20 65 46 27 56 -40 10 -86 -3 -149 -41
-99 -60 -97 -63 -97 140 0 141 3 181 16 209 16 32 16 37 1 68 -11 23 -16 65
-17 138 0 113 -14 287 -28 361 -4 25 -22 65 -38 90 -29 42 -32 44 -86 47 -53
3 -65 -1 -190 -67z m200 -58 c11 -21 27 -72 36 -113 17 -78 33 -370 22 -413
-7 -29 -68 -68 -260 -166 -77 -39 -144 -75 -151 -81 -18 -15 -228 -92 -255
-94 -25 -1 -25 -1 -31 109 -3 61 -10 163 -14 227 l-8 117 89 94 c112 120 239
223 329 269 75 39 192 87 212 87 7 1 21 -16 31 -36z m64 -862 c1 -69 1 -139 1
-156 -2 -34 -28 -58 -113 -106 -30 -17 -90 -58 -133 -90 -81 -62 -84 -64 -105
-51 -20 13 12 78 107 219 45 67 88 137 96 156 7 18 22 40 31 48 10 8 32 37 51
66 52 81 63 67 65 -86z"/>
<path d="M1579 6143 c-67 -35 -75 -60 -27 -95 41 -30 118 -48 208 -48 73 0
205 15 255 30 17 4 45 11 64 14 l34 6 -6 -36 c-3 -20 -33 -94 -67 -164 -33
-70 -60 -134 -60 -141 0 -8 -10 -30 -21 -49 -12 -19 -46 -97 -76 -175 -30 -77
-67 -173 -84 -212 -16 -40 -29 -79 -29 -86 0 -8 -9 -25 -19 -39 -22 -28 -75
-156 -84 -204 -5 -27 -2 -33 19 -43 41 -18 87 -13 129 15 59 39 151 129 216
211 29 36 121 147 148 178 27 31 114 96 160 121 53 27 53 27 87 9 67 -36 85
-98 55 -190 -49 -149 -58 -168 -129 -252 -50 -59 -56 -100 -10 -64 14 12 35
21 46 21 19 0 92 82 92 104 0 5 13 24 29 41 36 37 71 147 71 222 0 86 -34 134
-124 174 -40 17 -59 20 -110 14 -86 -9 -133 -43 -250 -182 -6 -7 -71 -76 -145
-153 -98 -102 -141 -140 -158 -140 -30 0 -30 20 3 71 14 22 39 75 55 117 16
42 41 101 55 131 34 73 74 180 74 199 0 8 11 30 25 48 14 18 28 48 32 66 3 18
12 40 20 49 19 23 87 164 107 225 9 29 31 73 47 98 22 32 29 55 27 78 -3 33
-3 33 -63 35 -33 2 -80 -4 -105 -11 -100 -32 -346 -55 -392 -37 -22 8 -28 17
-28 41 0 16 -4 30 -8 30 -5 0 -33 -12 -63 -27z"/>
<path d="M3427 5783 c-16 -15 -5 -42 27 -67 19 -14 41 -26 48 -26 21 0 119
-38 137 -53 9 -8 25 -17 36 -21 22 -8 149 -30 235 -41 30 -4 64 -14 75 -21 27
-19 48 -17 79 7 30 23 36 78 12 98 -8 7 -66 19 -128 26 -175 22 -364 62 -418
90 -30 15 -91 20 -103 8z"/>
<path d="M4420 5664 c-18 -45 -12 -203 10 -279 11 -38 20 -80 20 -92 0 -35 89
-293 123 -356 44 -84 78 -107 156 -107 85 0 138 29 245 134 47 47 89 86 94 86
4 0 41 41 82 92 89 108 157 178 219 226 25 19 52 43 59 53 14 20 94 59 122 59
26 0 44 -42 35 -86 -18 -99 -127 -237 -323 -414 -40 -36 -78 -67 -85 -69 -23
-7 -47 -34 -47 -52 0 -19 -45 -38 -58 -24 -4 3 -11 25 -17 48 -8 34 -15 43
-36 45 -15 2 -32 -5 -42 -16 -16 -17 -16 -22 -2 -48 8 -16 15 -41 15 -56 0
-30 -16 -44 -117 -106 -76 -46 -218 -146 -255 -180 -23 -21 -28 -34 -28 -74 0
-26 3 -48 6 -48 4 0 16 9 28 20 46 45 118 100 131 100 7 0 32 16 55 35 23 19
50 35 60 35 10 0 40 18 66 40 27 22 54 40 60 40 7 0 14 -32 18 -87 19 -257 37
-313 100 -313 25 0 42 10 78 48 42 44 137 205 153 262 4 14 16 34 26 45 10 11
25 41 34 65 19 53 75 139 91 140 24 0 51 -37 62 -85 7 -27 17 -102 22 -165 14
-144 16 -150 45 -150 34 0 39 29 31 174 -11 193 -48 304 -112 331 -33 14 -39
35 -9 35 7 0 46 16 86 35 41 19 80 35 88 35 8 0 22 6 30 14 9 8 50 17 92 21
75 7 76 7 112 -25 75 -65 82 -87 81 -250 0 -137 -2 -152 -37 -269 -25 -84 -52
-148 -82 -198 -25 -41 -45 -78 -45 -84 0 -5 -17 -28 -38 -52 -21 -23 -50 -59
-65 -79 -28 -37 -123 -115 -174 -142 -38 -19 -138 -23 -185 -7 -50 17 -104 80
-153 180 -29 58 -45 81 -59 81 -16 0 -18 -5 -12 -42 4 -23 16 -56 26 -74 11
-17 20 -40 20 -51 0 -11 28 -49 63 -85 48 -51 74 -69 116 -83 74 -24 157 -16
238 25 96 48 229 188 303 319 8 14 24 42 36 61 12 19 30 58 40 85 10 28 26 61
36 75 33 48 61 195 61 320 -1 165 -17 222 -84 283 -80 74 -88 78 -180 80 -99
2 -184 -22 -317 -90 -47 -24 -91 -43 -98 -43 -20 0 -17 25 4 36 10 5 54 47 99
94 58 61 85 98 97 133 9 27 23 61 31 77 17 33 20 132 5 160 -15 28 -74 60
-111 60 -36 0 -51 -7 -171 -79 -56 -33 -121 -92 -273 -246 -232 -234 -322
-305 -388 -305 -53 0 -117 110 -170 290 -9 30 -23 78 -31 105 -30 99 -54 250
-50 303 5 50 4 52 -21 52 -18 0 -28 -7 -35 -26z m1040 -754 c0 -5 -20 -37 -44
-69 -24 -33 -67 -106 -96 -163 -29 -57 -63 -116 -75 -133 -12 -16 -32 -49 -44
-73 -23 -44 -55 -82 -70 -82 -14 0 -28 106 -30 222 l-2 107 53 27 c29 14 91
52 138 83 115 76 170 102 170 81z"/>
<path d="M4317 5493 c-12 -19 -27 -134 -27 -204 0 -43 -4 -81 -10 -84 -5 -3
-10 -20 -10 -36 0 -16 -7 -46 -15 -66 -8 -19 -15 -61 -15 -92 -1 -31 -7 -67
-15 -81 -8 -14 -15 -43 -15 -65 0 -22 -12 -71 -25 -110 -14 -38 -25 -81 -25
-95 -1 -14 -7 -36 -15 -50 -8 -14 -14 -34 -15 -45 0 -37 -49 -175 -85 -244
-42 -79 -79 -107 -101 -76 -8 10 -16 35 -19 54 -3 20 -21 70 -40 111 -39 89
-54 149 -66 273 -5 51 -12 119 -15 153 l-6 61 58 69 c33 38 67 80 77 94 53 76
67 102 67 123 0 42 -44 65 -57 30 -23 -60 -111 -163 -139 -163 -15 0 -16 13
-12 135 2 74 2 135 -1 135 -12 -1 -38 -26 -49 -46 -6 -12 -16 -85 -21 -162 -6
-80 -16 -150 -23 -162 -16 -25 -113 -63 -140 -54 -15 4 -32 -6 -69 -42 -50
-49 -62 -87 -37 -112 28 -28 122 -1 214 62 21 14 40 23 44 21 4 -2 10 -42 14
-87 4 -46 15 -121 26 -168 10 -47 21 -102 25 -123 8 -48 70 -210 102 -264 32
-56 83 -77 133 -57 19 8 45 25 57 37 27 28 99 198 108 257 4 25 11 50 15 55 8
10 14 43 28 145 9 65 37 123 57 118 8 -2 35 -41 59 -88 87 -165 204 -406 227
-469 27 -71 49 -93 77 -75 27 18 20 88 -17 160 -17 34 -31 69 -31 78 0 9 -17
51 -39 93 -81 163 -95 191 -148 293 -30 58 -67 122 -84 142 -32 40 -37 85 -18
148 11 36 20 139 23 265 1 39 8 81 15 93 21 38 -1 150 -22 115z"/>
<path d="M3260 5316 c0 -7 7 -30 15 -49 18 -43 20 -192 4 -234 -6 -15 -21 -64
-34 -108 -49 -167 -326 -718 -383 -761 -22 -17 -54 -18 -70 -2 -7 7 -12 37
-12 68 0 30 -5 71 -11 90 -6 19 -15 67 -20 105 -15 122 -27 174 -59 258 -41
106 -69 130 -135 118 -38 -7 -56 -18 -97 -62 -79 -85 -158 -215 -202 -333 -21
-54 -72 -136 -86 -136 -12 0 -22 68 -20 146 3 144 -23 326 -54 381 -29 51 -78
78 -118 67 -17 -5 -40 -21 -51 -36 -17 -23 -18 -29 -7 -43 9 -11 23 -15 41
-11 37 7 59 -13 70 -65 18 -85 38 -335 39 -470 0 -117 3 -140 18 -159 26 -32
64 -21 93 27 40 67 69 124 69 135 0 6 10 25 23 42 13 17 36 58 52 91 15 33 36
71 45 85 10 14 24 44 31 68 7 24 26 58 43 77 17 19 39 46 49 60 11 14 30 31
43 37 66 30 103 -78 159 -472 9 -63 23 -127 31 -142 19 -37 56 -60 85 -54 13
3 36 7 50 10 35 8 73 47 122 129 23 38 57 92 74 120 18 29 40 68 48 87 18 39
56 120 105 225 33 70 83 200 99 263 5 18 14 39 20 46 16 19 32 109 31 171 -1
55 -36 213 -52 233 -14 16 -48 15 -48 -2z"/>
<path d="M7552 5128 c-6 -6 -12 -21 -12 -33 0 -36 -123 -275 -141 -275 -3 0
-21 30 -39 66 -31 60 -69 104 -92 104 -23 0 -19 -38 10 -94 35 -67 62 -140 62
-170 0 -44 -162 -217 -237 -252 -39 -17 -53 -29 -53 -44 0 -30 23 -34 66 -11
21 12 46 21 55 21 16 0 116 83 172 143 34 35 39 32 83 -53 45 -85 111 -157
174 -188 46 -23 68 -27 135 -27 74 0 86 3 151 38 77 41 186 126 223 173 12 16
40 56 62 89 22 33 51 75 65 94 13 19 24 43 24 53 0 11 13 36 29 56 18 23 31
55 35 84 8 57 -8 72 -27 26 -8 -18 -22 -40 -32 -48 -9 -8 -46 -57 -80 -110
-99 -148 -225 -271 -333 -322 -60 -29 -68 -30 -140 -24 -75 7 -79 9 -125 54
-53 52 -137 185 -137 218 0 29 27 92 56 130 50 67 118 217 118 264 1 43 0 45
-29 48 -17 2 -36 -3 -43 -10z"/>
<path d="M1656 4743 c-4 -9 -11 -87 -16 -172 -5 -86 -18 -194 -29 -241 -11
-47 -27 -116 -36 -155 -8 -38 -24 -82 -35 -97 -23 -32 -60 -141 -60 -179 0
-18 8 -29 25 -37 51 -23 66 -11 100 83 10 28 22 54 27 59 4 6 8 29 8 53 0 24
7 60 15 80 8 19 15 47 15 62 0 14 10 46 22 71 13 27 22 70 24 110 6 129 21
298 28 308 3 5 3 24 0 41 -6 28 -10 31 -44 31 -26 0 -40 -5 -44 -17z"/>
<path d="M10662 4433 c3 -26 0 -28 -42 -35 -95 -15 -110 -20 -110 -38 0 -33
38 -55 102 -57 44 -1 63 -6 72 -19 10 -12 28 -18 62 -18 l49 -1 3 88 c3 83 2
88 -16 78 -13 -7 -30 -4 -61 10 -57 25 -62 24 -59 -8z"/>
</g>
</svg>
