<?xml version="1.0" standalone="no"?>
<!DOCTYPE svg PUBLIC "-//W3C//DTD SVG 20010904//EN"
 "http://www.w3.org/TR/2001/REC-SVG-20010904/DTD/svg10.dtd">
<svg version="1.0" xmlns="http://www.w3.org/2000/svg"
 width="360.000000pt" height="360.000000pt" viewBox="0 0 360.000000 360.000000"
 preserveAspectRatio="xMidYMid meet">
<metadata>
Created by potrace 1.16, written by Peter Selinger 2001-2019
</metadata>
<g transform="translate(0.000000,360.000000) scale(0.100000,-0.100000)"
fill="#000000" stroke="none">
<path d="M3055 3389 c-181 -37 -511 -105 -732 -150 l-403 -82 0 -213 0 -212
73 -12 c39 -7 112 -25 161 -41 393 -130 685 -463 767 -874 18 -88 18 -339 1
-420 -96 -447 -406 -775 -849 -897 -68 -19 -104 -22 -273 -22 -216 0 -266 9
-435 77 -298 120 -548 391 -650 704 -84 255 -69 555 39 803 77 178 243 380
401 487 129 87 307 159 453 183 l72 12 0 212 0 212 -722 147 c-398 81 -730
147 -740 147 -20 0 -99 -87 -135 -147 -14 -24 -37 -76 -52 -116 l-26 -72 -3
-1282 c-3 -1426 -6 -1360 64 -1503 51 -103 161 -213 264 -264 141 -68 78 -66
1476 -66 1223 0 1263 1 1338 20 113 29 190 73 276 160 87 86 131 163 160 276
19 75 20 115 20 1344 0 1229 -1 1269 -20 1344 -26 102 -73 188 -140 257 l-55
57 -330 -69z"/>
<path d="M1615 2464 c-269 -57 -504 -246 -620 -498 -104 -223 -106 -509 -7
-729 125 -275 380 -470 676 -518 94 -15 266 -7 356 16 254 66 481 259 592 502
70 155 94 397 55 556 -84 342 -350 601 -689 671 -96 20 -269 20 -363 0z m406
-631 c98 -97 183 -189 190 -204 21 -53 5 -77 -185 -266 -243 -244 -209 -243
-444 -10 -95 94 -180 185 -189 201 -30 58 -16 78 180 274 245 243 210 243 448
5z"/>
</g>
</svg>
